<!-- Generator: Adobe Illustrator 17.0.0, SVG Export Plug-In  -->
<svg version="1.1"
	 xmlns="http://www.w3.org/2000/svg" xmlns:xlink="http://www.w3.org/1999/xlink" xmlns:a="http://ns.adobe.com/AdobeSVGViewerExtensions/3.0/"
	 x="0px" y="0px" width="210.001px" height="192px" viewBox="0 0 210.001 192" enable-background="new 0 0 210.001 192"
	 xml:space="preserve">
<defs>
</defs>
<g>
	<rect x="16.75" fill="#C4C4C4" width="0.5" height="192"/>
	<rect x="32.75" fill="#C4C4C4" width="0.5" height="192"/>
	<rect x="48.75" fill="#C4C4C4" width="0.5" height="192"/>
	<rect x="64.75" fill="#C4C4C4" width="0.5" height="192"/>
	<rect x="80.75" fill="#C4C4C4" width="0.5" height="192"/>
	<rect x="96.75" fill="#C4C4C4" width="0.5" height="192"/>
	<rect x="112.75" fill="#C4C4C4" width="0.5" height="192"/>
	<rect x="128.75" fill="#C4C4C4" width="0.5" height="192"/>
	<rect x="144.75" fill="#C4C4C4" width="0.5" height="192"/>
	<rect x="160.75" fill="#C4C4C4" width="0.5" height="192"/>
	<rect x="176.75" fill="#C4C4C4" width="0.5" height="192"/>
	<rect x="192.75" fill="#C4C4C4" width="0.5" height="192"/>
	<rect x="1" y="15.75" fill="#C4C4C4" width="208" height="0.5"/>
	<rect x="1" y="31.75" fill="#C4C4C4" width="208" height="0.5"/>
	<rect x="1" y="47.75" fill="#C4C4C4" width="208" height="0.5"/>
	<rect x="1" y="63.75" fill="#C4C4C4" width="208" height="0.5"/>
	<rect x="1" y="79.75" fill="#C4C4C4" width="208" height="0.5"/>
	<rect x="1" y="95.75" fill="#C4C4C4" width="208" height="0.5"/>
	<rect x="1" y="111.75" fill="#C4C4C4" width="208" height="0.5"/>
	<rect x="1" y="127.75" fill="#C4C4C4" width="208" height="0.5"/>
	<rect x="1" y="143.75" fill="#C4C4C4" width="208" height="0.5"/>
	<rect x="1" y="159.75" fill="#C4C4C4" width="208" height="0.5"/>
	<rect x="1" y="175.75" fill="#C4C4C4" width="208" height="0.5"/>
</g>
<path fill="#CE2D31" d="M1.001,121c-0.294,0-0.584-0.128-0.781-0.375c-0.345-0.432-0.275-1.061,0.156-1.406l40-32
	c0.304-0.243,0.723-0.286,1.072-0.113l31.028,15.514l31.596-78.99c0.138-0.345,0.456-0.585,0.825-0.623
	c0.368-0.044,0.73,0.13,0.936,0.439l31.51,47.266l31.21-15.605c0.387-0.193,0.851-0.117,1.154,0.188l15.019,15.019l23.379-46.759
	c0.247-0.494,0.847-0.693,1.342-0.447c0.494,0.247,0.694,0.848,0.447,1.342l-24,48c-0.144,0.287-0.417,0.488-0.734,0.54
	c-0.317,0.051-0.641-0.053-0.867-0.28l-15.49-15.49l-31.355,15.678c-0.452,0.226-1,0.08-1.279-0.34l-30.945-46.418l-31.294,78.234
	c-0.104,0.26-0.312,0.464-0.573,0.563c-0.261,0.101-0.552,0.086-0.803-0.04L41.125,89.181l-39.5,31.601
	C1.441,120.929,1.22,121,1.001,121z"/>
<path fill="#42AFAC" d="M0.999,153c-0.208,0-0.419-0.065-0.599-0.2c-0.442-0.331-0.531-0.958-0.2-1.399l24-32
	c0.29-0.388,0.817-0.51,1.247-0.295L57,134.882l31.553-15.776c0.385-0.193,0.851-0.117,1.154,0.188l15.019,15.018l15.379-30.759
	c0.247-0.494,0.846-0.693,1.342-0.447l31.105,15.553l15.553-31.106c0.233-0.465,0.781-0.678,1.266-0.481l40,16
	c0.513,0.205,0.762,0.787,0.557,1.3c-0.206,0.514-0.788,0.763-1.3,0.558l-39.146-15.658l-15.588,31.177
	c-0.247,0.493-0.847,0.692-1.342,0.447l-31.105-15.553l-15.553,31.105c-0.144,0.287-0.417,0.488-0.734,0.54
	c-0.319,0.05-0.64-0.053-0.867-0.28l-15.49-15.49l-31.355,15.678c-0.281,0.141-0.613,0.141-0.895,0l-31.253-15.627L1.8,152.6
	C1.604,152.862,1.303,153,0.999,153z"/>
<g>
	<rect x="33" y="80" fill="none" width="16" height="16"/>
	<circle fill="#CE2D31" cx="41" cy="88" r="3"/>
	<circle fill="#F1F1F1" cx="41" cy="88" r="1"/>
</g>
<g>
	<rect x="65" y="96" fill="none" width="16" height="16"/>
	<circle fill="#CE2D31" cx="73" cy="104" r="3"/>
	<circle fill="#F1F1F1" cx="73" cy="104" r="1"/>
</g>
<g>
	<rect x="97" y="16" fill="none" width="16" height="16"/>
	<circle fill="#CE2D31" cx="105" cy="24" r="3"/>
	<circle fill="#F1F1F1" cx="105" cy="24" r="1"/>
</g>
<g>
	<rect x="129" y="64" fill="none" width="16" height="16"/>
	<circle fill="#CE2D31" cx="137" cy="72" r="3"/>
	<circle fill="#F1F1F1" cx="137" cy="72" r="1"/>
</g>
<g>
	<rect x="161" y="48" fill="none" width="16" height="16"/>
	<circle fill="#CE2D31" cx="169" cy="56" r="3"/>
	<circle fill="#F1F1F1" cx="169" cy="56" r="1"/>
</g>
<g>
	<rect x="177" y="64" fill="none" width="16" height="16"/>
	<circle fill="#CE2D31" cx="185" cy="72" r="3"/>
	<circle fill="#F1F1F1" cx="185" cy="72" r="1"/>
</g>
<g>
	<rect x="161" y="80" fill="none" width="16" height="16"/>
	<circle fill="#42AFAC" cx="169" cy="88" r="3"/>
	<circle fill="#F1F1F1" cx="169" cy="88" r="1"/>
</g>
<g>
	<rect x="145" y="112" fill="none" width="16" height="16"/>
	<circle fill="#42AFAC" cx="153" cy="120" r="3"/>
	<circle fill="#F1F1F1" cx="153" cy="120" r="1"/>
</g>
<g>
	<rect x="113" y="96" fill="none" width="16" height="16"/>
	<circle fill="#42AFAC" cx="121" cy="104" r="3"/>
	<circle fill="#F1F1F1" cx="121" cy="104" r="1"/>
</g>
<g>
	<rect x="97" y="128" fill="none" width="16" height="16"/>
	<circle fill="#42AFAC" cx="105" cy="136" r="3"/>
	<circle fill="#F1F1F1" cx="105" cy="136" r="1"/>
</g>
<g>
	<rect x="81" y="112" fill="none" width="16" height="16"/>
	<circle fill="#42AFAC" cx="89" cy="120" r="3"/>
	<circle fill="#F1F1F1" cx="89" cy="120" r="1"/>
</g>
<g>
	<rect x="49" y="128" fill="none" width="16" height="16"/>
	<circle fill="#42AFAC" cx="57" cy="136" r="3"/>
	<circle fill="#F1F1F1" cx="57" cy="136" r="1"/>
</g>
<g>
	<rect x="17" y="112" fill="none" width="16" height="16"/>
	<circle fill="#42AFAC" cx="25" cy="120" r="3"/>
	<circle fill="#F1F1F1" cx="25" cy="120" r="1"/>
</g>
<g>
	<path fill="#CE2D31" d="M98.604,8.707c0.68,0,0.832-0.328,0.968-0.704h0.592V13.6h-0.88V9.33h-0.68V8.707z"/>
	<path fill="#CE2D31" d="M102.02,11.793v0.519c0,0.4,0.176,0.544,0.456,0.544c0.28,0,0.456-0.143,0.456-0.544v-1.231
		c0-0.4-0.176-0.553-0.456-0.553c-0.28,0-0.456,0.152-0.456,0.553v0.168h-0.832l0.16-3.247h2.318v0.8h-1.527l-0.072,1.336
		c0.16-0.265,0.416-0.408,0.768-0.408c0.648,0,0.976,0.455,0.976,1.279v1.247c0,0.896-0.448,1.407-1.311,1.407
		c-0.864,0-1.312-0.512-1.312-1.407v-0.464H102.02z"/>
	<path fill="#CE2D31" d="M105.683,8.738c-0.28,0-0.456,0.152-0.456,0.553v0.6h-0.832V9.347c0-0.896,0.448-1.407,1.311-1.407
		c0.864,0,1.312,0.512,1.312,1.407c0,1.759-1.751,2.415-1.751,3.334c0,0.04,0,0.08,0.008,0.12h1.663V13.6h-2.543v-0.688
		c0-1.646,1.743-1.918,1.743-3.533C106.139,8.875,105.963,8.738,105.683,8.738z"/>
	<path fill="#CE2D31" d="M107.516,8.859c0-0.576,0.296-0.896,0.847-0.896c0.552,0,0.848,0.32,0.848,0.896v1.838
		c0,0.576-0.296,0.896-0.848,0.896c-0.551,0-0.847-0.32-0.847-0.896V8.859z M108.076,10.738c0,0.247,0.104,0.351,0.288,0.351
		c0.176,0,0.288-0.104,0.288-0.351v-1.92c0-0.248-0.112-0.352-0.288-0.352c-0.184,0-0.288,0.104-0.288,0.352V10.738z M110.57,8.003
		h0.52l-2.206,5.597h-0.52L110.57,8.003z M110.291,10.906c0-0.576,0.296-0.896,0.848-0.896c0.551,0,0.847,0.32,0.847,0.896v1.838
		c0,0.576-0.296,0.897-0.847,0.897c-0.552,0-0.848-0.32-0.848-0.897V10.906z M110.85,12.785c0,0.247,0.104,0.351,0.288,0.351
		c0.176,0,0.288-0.104,0.288-0.351v-1.92c0-0.248-0.112-0.352-0.288-0.352c-0.184,0-0.288,0.104-0.288,0.352V12.785z"/>
</g>
<g>
	<path fill="#42AFAC" d="M164.907,77.664c-0.887,0-1.375-0.512-1.375-1.407v-0.44c0-0.535,0.16-0.951,0.544-1.166
		c-0.368-0.201-0.544-0.576-0.544-1.128v-0.176c0-0.896,0.488-1.407,1.375-1.407c0.888,0,1.376,0.512,1.376,1.407v0.176
		c0,0.552-0.184,0.927-0.544,1.128c0.384,0.215,0.544,0.631,0.544,1.166v0.44C166.283,77.152,165.795,77.664,164.907,77.664z
		 M164.412,73.69c0,0.448,0.208,0.591,0.496,0.591c0.28,0,0.496-0.143,0.496-0.591v-0.312c0-0.504-0.216-0.641-0.496-0.641
		s-0.496,0.137-0.496,0.641V73.69z M164.907,76.864c0.28,0,0.488-0.136,0.496-0.632v-0.52c0-0.439-0.184-0.631-0.496-0.631
		c-0.311,0-0.496,0.191-0.496,0.631v0.52C164.412,76.729,164.628,76.864,164.907,76.864z"/>
	<path fill="#42AFAC" d="M168.075,77.664c-0.887,0-1.375-0.512-1.375-1.407v-0.44c0-0.535,0.16-0.951,0.544-1.166
		c-0.368-0.201-0.544-0.576-0.544-1.128v-0.176c0-0.896,0.488-1.407,1.375-1.407c0.888,0,1.376,0.512,1.376,1.407v0.176
		c0,0.552-0.184,0.927-0.544,1.128c0.384,0.215,0.544,0.631,0.544,1.166v0.44C169.451,77.152,168.963,77.664,168.075,77.664z
		 M167.58,73.69c0,0.448,0.208,0.591,0.496,0.591c0.28,0,0.496-0.143,0.496-0.591v-0.312c0-0.504-0.216-0.641-0.496-0.641
		s-0.496,0.137-0.496,0.641V73.69z M168.075,76.864c0.28,0,0.488-0.136,0.496-0.632v-0.52c0-0.439-0.184-0.631-0.496-0.631
		c-0.311,0-0.496,0.191-0.496,0.631v0.52C167.58,76.729,167.796,76.864,168.075,76.864z"/>
	<path fill="#42AFAC" d="M169.932,72.859c0-0.576,0.296-0.896,0.847-0.896c0.552,0,0.848,0.32,0.848,0.896v1.838
		c0,0.576-0.296,0.896-0.848,0.896c-0.551,0-0.847-0.32-0.847-0.896V72.859z M170.492,74.738c0,0.247,0.104,0.352,0.288,0.352
		c0.176,0,0.288-0.104,0.288-0.352v-1.92c0-0.248-0.112-0.352-0.288-0.352c-0.184,0-0.288,0.104-0.288,0.352V74.738z
		 M172.986,72.003h0.52l-2.207,5.597h-0.52L172.986,72.003z M172.707,74.906c0-0.576,0.296-0.896,0.848-0.896
		c0.551,0,0.847,0.32,0.847,0.896v1.838c0,0.576-0.296,0.896-0.847,0.896c-0.552,0-0.848-0.32-0.848-0.896V74.906z M173.266,76.785
		c0,0.247,0.104,0.352,0.288,0.352c0.176,0,0.288-0.104,0.288-0.352v-1.92c0-0.248-0.112-0.351-0.288-0.351
		c-0.184,0-0.288,0.104-0.288,0.351V76.785z"/>
</g>
<path fill="#6D6E71" d="M1,185c-0.226,0-0.453-0.076-0.64-0.231c-0.424-0.354-0.482-0.984-0.128-1.409l40-48
	c0.18-0.216,0.442-0.346,0.723-0.358c0.284-0.021,0.554,0.093,0.752,0.292l31.49,31.49l31.355-15.678
	c0.281-0.141,0.613-0.141,0.895,0l31.355,15.678l15.49-15.49c0.188-0.188,0.442-0.293,0.707-0.293h31.697l23.748-15.832
	c0.459-0.306,1.08-0.183,1.387,0.277c0.306,0.46,0.182,1.08-0.277,1.387l-24,16C185.391,152.941,185.197,153,185,153h-31.586
	l-15.707,15.707c-0.303,0.305-0.768,0.382-1.154,0.188L105,153.118l-31.553,15.776c-0.385,0.193-0.851,0.117-1.154-0.188
	l-31.226-31.226L1.768,184.641C1.57,184.878,1.286,185,1,185z"/>
<g>
	<rect x="33" y="128" fill="none" width="16" height="16"/>
	<circle fill="#6D6E71" cx="41" cy="136" r="3"/>
	<circle fill="#F1F1F1" cx="41" cy="136" r="1"/>
</g>
<g>
	<rect x="65" y="160" fill="none" width="16" height="16"/>
	<circle fill="#6D6E71" cx="73" cy="168" r="3"/>
	<circle fill="#F1F1F1" cx="73" cy="168" r="1"/>
</g>
<g>
	<rect x="97" y="144" fill="none" width="16" height="16"/>
	<circle fill="#6D6E71" cx="105" cy="152" r="3"/>
	<circle fill="#F1F1F1" cx="105" cy="152" r="1"/>
</g>
<g>
	<rect x="129" y="160" fill="none" width="16" height="16"/>
	<circle fill="#6D6E71" cx="137" cy="168" r="3"/>
	<circle fill="#F1F1F1" cx="137" cy="168" r="1"/>
</g>
<g>
	<rect x="145" y="144" fill="none" width="16" height="16"/>
	<circle fill="#6D6E71" cx="153" cy="152" r="3"/>
	<circle fill="#F1F1F1" cx="153" cy="152" r="1"/>
</g>
<g>
	<rect x="177" y="144" fill="none" width="16" height="16"/>
	<circle fill="#6D6E71" cx="185" cy="152" r="3"/>
	<circle fill="#F1F1F1" cx="185" cy="152" r="1"/>
</g>
</svg>
