<!-- Generator: Adobe Illustrator 17.0.0, SVG Export Plug-In  -->
<svg version="1.1"
	 xmlns="http://www.w3.org/2000/svg" xmlns:xlink="http://www.w3.org/1999/xlink" xmlns:a="http://ns.adobe.com/AdobeSVGViewerExtensions/3.0/"
	 x="0px" y="0px" width="1996.485px" height="3616.784px" viewBox="0 0 1996.485 3616.784"
	 enable-background="new 0 0 1996.485 3616.784" xml:space="preserve">
<defs>
</defs>
<g>
	<g>
		<g id="XMLID_121_">
			<g id="XMLID_137_">
				<rect id="XMLID_139_" x="1255.512" y="3190.298" fill="#E6FFFA" width="535.26" height="388.924"/>
				<rect id="XMLID_138_" x="1222.645" y="3551.834" fill="#F5FFFD" width="600.993" height="64.951"/>
			</g>
			<g id="XMLID_134_">
				<rect id="XMLID_136_" x="646.876" y="2711.382" fill="#E6FFFA" width="535.26" height="867.84"/>
				<rect id="XMLID_135_" x="614.009" y="3551.834" fill="#F5FFFD" width="600.211" height="64.951"/>
			</g>
			<g id="XMLID_131_">
				<rect id="XMLID_133_" x="32.084" y="2985.271" fill="#E6FFFA" width="535.26" height="593.95"/>
				<rect id="XMLID_132_" x="0" y="3551.834" fill="#F5FFFD" width="600.211" height="64.951"/>
			</g>
			<g id="XMLID_128_">
				<path id="XMLID_129_" fill="#90CBD1" d="M935.627,3225.513h-38.306v-73.937c0-8.979,0.191-17.195,0.573-24.646
					c-2.357,2.866-5.287,5.86-8.788,8.979l-15.857,13.087l-19.583-24.072l47.954-39.07h34.007V3225.513z"/>
			</g>
			<g id="XMLID_125_">
				<path id="XMLID_126_" fill="#90CBD1" d="M340.377,3367.936H239.025v-24.836l34.103-34.485
					c9.744-10.188,16.111-17.147,19.105-20.872c2.993-3.726,5.078-6.926,6.257-9.6c1.178-2.675,1.767-5.476,1.767-8.406
					c0-3.63-1.179-6.496-3.535-8.597c-2.357-2.102-5.669-3.152-9.935-3.152c-4.394,0-8.836,1.258-13.325,3.773
					c-4.49,2.517-9.569,6.226-15.237,11.129l-20.729-24.263c7.196-6.431,13.245-11.033,18.15-13.803
					c4.903-2.77,10.237-4.886,16-6.352c5.764-1.464,12.242-2.197,19.44-2.197c9.042,0,17.114,1.593,24.216,4.776
					c7.1,3.185,12.609,7.723,16.525,13.613c3.917,5.891,5.875,12.499,5.875,19.821c0,5.478-0.685,10.541-2.054,15.188
					c-1.37,4.649-3.486,9.218-6.352,13.708c-2.866,4.49-6.672,9.218-11.416,14.186c-4.744,4.967-14.854,14.393-30.329,28.275v0.955
					h52.826V3367.936z"/>
			</g>
			<g id="XMLID_122_">
				<path id="XMLID_123_" fill="#90CBD1" d="M1558.341,3336.813c0,8.662-2.643,16.096-7.929,22.305
					c-5.287,6.209-12.929,10.715-22.926,13.517v0.573c23.308,2.93,34.962,13.947,34.962,33.052c0,12.991-5.143,23.212-15.428,30.664
					c-10.285,7.451-24.566,11.177-42.843,11.177c-7.515,0-14.473-0.542-20.872-1.624c-6.401-1.082-13.326-3.057-20.777-5.923
					v-31.332c6.114,3.121,12.338,5.43,18.676,6.926c6.336,1.497,12.179,2.245,17.528,2.245c8.278,0,14.313-1.161,18.102-3.487
					c3.789-2.324,5.684-5.97,5.684-10.938c0-3.821-0.988-6.766-2.961-8.836c-1.975-2.069-5.158-3.63-9.552-4.681
					c-4.394-1.051-10.126-1.576-17.195-1.576h-8.597v-28.371h8.788c19.168,0,28.753-4.903,28.753-14.711
					c0-3.693-1.418-6.432-4.25-8.215c-2.834-1.782-6.639-2.675-11.416-2.675c-8.917,0-18.15,2.994-27.702,8.979l-15.666-25.219
					c7.387-5.094,14.949-8.724,22.688-10.89c7.737-2.164,16.605-3.248,26.603-3.248c14.456,0,25.792,2.866,34.007,8.597
					C1554.234,3318.855,1558.341,3326.752,1558.341,3336.813z"/>
			</g>
		</g>
		<g id="XMLID_103_">
			<g id="XMLID_104_">
				<path id="XMLID_120_" fill="#E8C76B" d="M441.147,2570.199c-0.014,9.68-4.352,17.516-9.685,17.506l-7.617-0.01
					c-5.335-0.01-9.65-7.858-9.633-17.534l0,0c0.01-9.678,4.348-17.516,9.686-17.508l7.611,0.01
					C436.846,2552.667,441.159,2560.525,441.147,2570.199L441.147,2570.199z"/>
				<path id="XMLID_119_" fill="#E8C76B" d="M181.859,2571.206c-0.014,9.682-4.352,17.52-9.691,17.51l-7.613-0.012
					c-5.335-0.006-9.648-7.856-9.635-17.534l0,0c0.013-9.676,4.349-17.518,9.686-17.508l7.615,0.012
					C177.557,2553.68,181.873,2561.532,181.859,2571.206L181.859,2571.206z"/>
				<ellipse id="XMLID_118_" fill="#FFFFFF" cx="251.53" cy="2459.407" rx="0" ry="0.716"/>
				<path id="XMLID_117_" fill="#442B22" d="M449.529,2545.397l-0.108-0.002c-9.546-52.918-54.22-92.922-107.315-92.997
					l-86.032-0.123c-53.193-0.076-97.53,40.002-107.107,93.049h0.121c-0.041,1.984,0.771,11.787,21.129,11.851
					c19.929,0.067,26.704-9.791,27.871-11.782h0.046c0.02-0.066,0.046-0.131,0.066-0.197c0.055-0.099,0.079-0.151,0.079-0.151
					l-0.03-0.002c12.612-40.113,39.867-52.244,69.89-52.205l61.793,0.089c29.2,0.044,59.041,17.039,70.448,52.403h-0.021
					c0,0,0.02,0.044,0.058,0.117c0.013,0.038,0.028,0.074,0.037,0.109h0.024c0.939,1.679,7.538,11.996,27.909,11.99
					C451.038,2557.534,449.529,2545.397,449.529,2545.397z"/>
				<path id="XMLID_116_" fill="#593D31" d="M566.805,2910.043c-0.051,37.952-30.866,68.672-68.815,68.622l-405.316-0.578
					c-37.947-0.05-68.671-30.857-68.615-68.807l0.358-255.545c0.055-37.948,30.862-68.668,68.813-68.622l405.314,0.572
					c37.95,0.056,68.674,30.863,68.619,68.817L566.805,2910.043z"/>
				<path id="XMLID_115_" fill="#493027" d="M30.745,2806.782c2.018,31.616,148.365,109.171,261.927,109.334
					c117.422,0.163,256.183-69.433,267.241-111.338l7.226-134.247c0.056-37.946-30.666-68.759-68.617-68.811l-405.313-0.572
					c-37.951-0.052-68.762,30.668-68.815,68.622L30.745,2806.782z"/>
				<path id="XMLID_114_" fill="#7C5648" d="M30.766,2790.744c2.021,31.621,148.365,109.171,261.928,109.336
					c117.419,0.163,256.189-69.427,267.24-111.334l7.23-134.245c0.055-37.954-30.669-68.761-68.619-68.817l-405.314-0.572
					c-37.951-0.046-68.758,30.674-68.813,68.622L30.766,2790.744z"/>
				<path id="XMLID_113_" fill="#8C665A" d="M293.103,2890.417c-107.645-0.149-244.527-68.801-262.062-103.255l0.143,3.087
					c2.017,31.612,148.363,109.173,261.93,109.334c117.415,0.163,256.183-69.429,267.24-111.336l0.23-4.342
					C540.797,2826.107,406.987,2890.58,293.103,2890.417z"/>
				<path id="XMLID_112_" fill="#563C30" d="M292.693,2900.081c12.662,0.018,25.574-0.779,38.544-2.261l0.02-14.378
					c0.013-9.082-8.376-16.457-18.727-16.471l-34.503-0.046c-10.356-0.016-18.757,7.334-18.771,16.415l-0.02,14.664
					C270.584,2899.332,281.795,2900.061,292.693,2900.081z"/>
				<path id="XMLID_111_" fill="#E8C76B" d="M319.897,2925.595c-0.009,7.218-5.867,13.059-13.082,13.049l-24.04-0.036
					c-7.209-0.01-13.051-5.866-13.044-13.082l0.049-34.101c0.012-7.213,5.867-13.053,13.079-13.043l24.042,0.032
					c7.214,0.01,13.059,5.866,13.044,13.083L319.897,2925.595z"/>
				<path id="XMLID_110_" fill="#442B22" d="M92.674,2978.087l6.676,0.012c-0.753-39.41-34.077-71.163-75.128-71.224
					c-0.049,0.006-0.111,0.006-0.162,0.008v2.396C24.003,2947.229,54.728,2978.036,92.674,2978.087z"/>
				<path id="XMLID_109_" fill="#442B22" d="M490.829,2978.655l7.161,0.01c37.949,0.05,68.764-30.67,68.815-68.622l0.002-2.388
					c-0.215-0.004-0.431-0.012-0.647-0.012C525.11,2907.584,491.696,2939.245,490.829,2978.655z"/>
				<path id="XMLID_108_" fill="#99675C" d="M97.852,2630.707l392.408,0.554c25.969,0.036,48.431,14.898,59.362,36.536l0.247-4.726
					c0.055-36.623-28.913-66.358-64.691-66.406l-382.147-0.54c-35.78-0.054-64.826,29.603-64.88,66.227l0.214,4.765
					C49.351,2645.482,71.87,2630.669,97.852,2630.707z"/>
				<path id="XMLID_107_" fill="#FFEAB6" d="M311.684,2905.271v-0.735c0.015-9.489-7.672-17.194-17.156-17.206
					c-9.489-0.012-17.195,7.668-17.207,17.161l-0.001,0.731L311.684,2905.271z"/>
				<path id="XMLID_106_" fill="#FFEAB6" d="M169.06,2564.571c-1.14-1.142-2.71-1.794-4.326-1.798c-1.616,0-3.184,0.648-4.33,1.786
					c-1.146,1.142-1.795,2.706-1.797,4.325c-0.005,1.617,0.646,3.186,1.785,4.332c1.143,1.142,2.706,1.794,4.327,1.796
					c1.617,0.002,3.185-0.645,4.33-1.782c1.146-1.144,1.798-2.712,1.799-4.328C170.851,2567.285,170.204,2565.716,169.06,2564.571z"
					/>
				<path id="XMLID_105_" fill="#FFEAB6" d="M427.627,2563.366c-0.948-0.955-2.254-1.494-3.6-1.498
					c-1.351-0.002-2.654,0.536-3.611,1.49c-0.953,0.955-1.494,2.256-1.497,3.603c-0.004,1.345,0.539,2.652,1.486,3.613
					c0.953,0.948,2.257,1.49,3.607,1.494c1.343,0,2.652-0.536,3.607-1.488c0.953-0.95,1.499-2.253,1.498-3.607
					C429.119,2565.628,428.579,2564.323,427.627,2563.366z"/>
			</g>
		</g>
	</g>
	<g id="XMLID_1_">
		<path id="XMLID_102_" fill="#181E1D" d="M747.05,1942.606l-148.643-0.593c0,0,142.876-115.203,145.566-108.784
			C746.663,1839.648,747.05,1942.606,747.05,1942.606z"/>
		<g id="XMLID_96_">
			<g id="XMLID_98_">
				<polygon id="XMLID_101_" fill="#C46218" points="911.995,2680.692 830.313,2582.212 872.645,2533.417 824.094,2487.267 
					738.201,2596.625 891.223,2709.148 				"/>
				<path id="XMLID_100_" fill="#665837" d="M740.273,2593.792l141.987,108.771l36.164-28.025l-72.997-91.183l18.672-25.381
					l-74.077-42.498l-11.426,15.536C778.645,2535.834,740.273,2593.792,740.273,2593.792z"/>
				<polygon id="XMLID_99_" fill="#DBAC37" points="1020.979,2714.043 964.86,2689.635 877.947,2688.628 740.321,2583.067 
					727.752,2600.152 874.623,2711.246 				"/>
			</g>
			<polygon id="XMLID_97_" fill="#DBAC37" points="1024.782,2713.536 1024.101,2688.902 899.343,2651.45 899.056,2711.491 			"/>
		</g>
		<g id="XMLID_91_">
			<path id="XMLID_95_" fill="#C46218" d="M1827.584,1730.422l0.331-1.511c-0.768,0.043-1.538,0.023-2.316,0.028l-28.468,69.539
				l123.445,57.002l67.582-284.418l-109.318,161.693L1827.584,1730.422z"/>
			<polygon id="XMLID_94_" fill="#665837" points="1862.971,1724.558 1840.5,1825.526 1906.208,1852.283 1959.008,1657.011 
				1936.766,1636.263 1874.685,1725.189 			"/>
			<polygon id="XMLID_93_" fill="#DBAC37" points="1923.104,1863.391 1996.485,1572.918 1978.601,1568.935 1897.223,1850.291 			"/>
			<polygon id="XMLID_92_" fill="#DBAC37" points="1951.908,1661.225 1977.856,1572.307 1929.932,1636.721 			"/>
		</g>
		<polygon id="XMLID_90_" fill="#384747" points="700.599,1982.788 826.373,2151.794 992.717,2287.889 805.247,2495.124 
			856.104,2564.133 1147.734,2348.098 1160.979,2240.231 1067.712,1994.213 1117.925,1933.905 1538.828,1793.991 1812.597,1813.997 
			1839.586,1729.034 1546.851,1659.972 1126.206,1650.543 		"/>
		<polygon id="XMLID_89_" fill="#2D3534" points="814.429,2074.438 804.876,2125.073 823.498,2135.898 842.01,2080.272 
			814.839,1974.004 795.971,1993.109 		"/>
		<polygon id="XMLID_88_" fill="#2D3534" points="1123.651,1675.676 1105.104,1695.077 1182.737,1708.745 1232.273,1651.337 
			1201.684,1652.756 1167.382,1684.034 		"/>
		<path id="XMLID_87_" fill="#F0FFFC" d="M706.953,942.842c-196.63,42.208-289.689,107.699-339.608,177.818
			c-54.549,76.657-69.545,113.81-69.545,113.81l44.017,205.743l183.609-80.392l131.644,560.125l62.91,93.22l461.623-396.03
			l-105.075-428.924l130.64,243.745l104.888-124.577c0,0-156.422-333.893-213.959-361.341
			C978.776,889.112,941.117,892.596,706.953,942.842z"/>
		<polygon id="XMLID_86_" fill="#B6DDD5" points="916.495,1818.78 960.731,1810.301 767.791,1052.063 749.484,1056.35 		"/>
		<polygon id="XMLID_85_" fill="#B6DDD5" points="681.96,1173.283 753.893,1059.609 860.132,1113.344 997.812,909.21 
			476.571,1025.968 		"/>
		<g id="XMLID_81_">
			<path id="XMLID_84_" fill="#594D43" d="M620.728,1572.33c-6.718,7.89-12.414,16.549-16.961,25.842
				c-1.69,3.549,3.626,6.823,5.909,3.608c5.825-8.137,10.541-16.969,16.628-24.931
				C629.112,1573.183,623.739,1568.834,620.728,1572.33z"/>
			<path id="XMLID_83_" fill="#594D43" d="M593.983,1523.987c-6.015,3.079-12.758,4.444-17.593,9.384
				c-2.855,2.923,1.546,6.567,4.554,4.817c5.267-3.067,11.02-5.189,16.303-8.236
				C600.606,1528.013,597.423,1522.234,593.983,1523.987z"/>
			<path id="XMLID_82_" fill="#594D43" d="M568.86,1469.707c-4.287-1.13-5.432,5.218-2.013,7.059
				c3.507,1.877,7.358,2.169,11.104,3.486c4.484,1.575,7.43-4.889,2.986-6.831C577.056,1471.72,572.932,1470.79,568.86,1469.707z"/>
		</g>
		<path id="XMLID_80_" fill="#B6DDD5" d="M815.113,1143.3c-5.876,0.505-11.017,3.956-11.251,10.392
			c-0.203,5.187,3.839,10.523,9.142,11.136c0.375,0.178,0.733,0.428,1.142,0.554c2.107,0.658,4.188,0.597,6.297,0.065
			c7.927-1.998,10.546-11.529,5.261-17.53C823.229,1145.119,818.865,1142.983,815.113,1143.3z"/>
		<path id="XMLID_79_" fill="#B6DDD5" d="M832.168,1220.447c-13.029,3.045-8.307,23.262,4.727,20.216
			C849.933,1237.615,845.21,1217.397,832.168,1220.447z"/>
		<path id="XMLID_78_" fill="#B6DDD5" d="M850.722,1291.375c-7.575,1.773-11.904,10.798-7.943,17.692
			c1.417,2.443,3.242,4.641,5.788,5.951c3.541,1.81,8.423,2.868,12.003,0.348c0.2-0.129,0.265-0.193,0.327-0.251
			c0.035-0.013,0.052-0.016,0.081-0.033c2.457-1.283,4.606-3.949,5.282-6.662c0.93-3.777,0.502-8.551-2.518-11.426
			C861.036,1292.651,856.115,1290.113,850.722,1291.375z"/>
		<path id="XMLID_77_" fill="#B6DDD5" d="M871.448,1380.058c-17.009,3.977-10.845,30.341,6.159,26.367
			C894.604,1402.456,888.441,1376.088,871.448,1380.058z"/>
		<path id="XMLID_76_" fill="#B6DDD5" d="M882.06,1474.845c-4.877,7.836-0.366,16.208,7.299,19.547
			c-1.975-0.74-1.327-0.423,1.964,0.988c1.302,0.266,2.601,0.488,3.929,0.647c8.389,1.135,13.289-7.758,12.242-14.844
			c-0.482-3.336-2.52-5.971-4.678-8.45C897.183,1466.299,886.403,1467.85,882.06,1474.845z"/>
		<path id="XMLID_75_" fill="#B6DDD5" d="M918.721,1565.38c-10.971,2.561-10.903,17.672-0.751,21.243
			c0.323,0.106,0.613,0.215,0.927,0.313c3.046,1.07,6.964,0.153,9.215-2.151c0.221-0.23,0.46-0.453,0.693-0.694
			C936.318,1576.389,929.669,1562.82,918.721,1565.38z"/>
		<path id="XMLID_74_" fill="#B6DDD5" d="M944.07,1665.396c-14.862,3.473-9.482,26.492,5.388,23.025
			C964.298,1684.95,958.92,1661.923,944.07,1665.396z"/>
		<polygon id="XMLID_73_" fill="#2D3534" points="701.064,1056.055 754.307,1104.083 778.779,1096.447 797.849,1028.734 
			741.581,1011.892 		"/>
		<path id="XMLID_72_" fill="#F0FFFC" d="M569.328,974.777c-13.629,1.939-70.304,44.592-70.304,44.592l178.421,96.832
			l61.609-105.557l109.734,54.156l115.729-154.224l-100.221-25.145L569.328,974.777z"/>
		<path id="XMLID_71_" fill="#F4B378" d="M781.742,434.704c-34.768-86.055-132.712-127.629-218.782-92.852l-176.544,71.33
			c-86.058,34.773-127.632,132.717-92.862,218.767l95.344,235.978c34.772,86.069,132.719,127.647,218.778,92.877l176.544-71.336
			c86.072-34.77,127.642-132.72,92.865-218.789L781.742,434.704z"/>
		<path id="XMLID_70_" fill="#F4B378" d="M336.039,850.029c-10.299,53.551,55.218,30.809,77.386,24.094l-17.413-50.848
			C381.766,825.024,338.945,835.036,336.039,850.029z"/>
		<path id="XMLID_69_" fill="#594D43" d="M824.771,666.129c-29.55,11.608-50.647,10.371-82.055,14.602
			c-47.418,6.398-62.805-6.836-132.818,21.456c-42.987,17.365-95.62,59.19-127.991,91.002
			c-27.202,26.71-62.304,51.824-98.156,64.254c7.643,64.56,63.597,130.157,124.617,149.601
			c91.555,29.164,188.24,11.627,269.609-33.86c77.139-43.107,137.578-118.162,134.27-221.999
			c-1.231-39.249-23.777-80.724-48.037-112.363C849.128,657.434,838.355,660.787,824.771,666.129z"/>
		<path id="XMLID_68_" fill="#AF2C2C" d="M621.489,737.242c-69.716,33.584-68.069,60.46-108.206,69.588
			c0.053,0.09,0.075,0.184,0.118,0.256c15.58,1.432,33.635,26.031,45.461,33.001c20.588,12.153,57.217,34.768,81.341,34.755
			c54.122-0.04,86.217-40.121,99.98-83.246c7.483-23.391,3.705-70.784,21.438-86.522
			C742.294,723.277,678.309,709.871,621.489,737.242z"/>
		<path id="XMLID_67_" fill="#E0965A" d="M438.179,634.046c-31.247,12.625-46.328,48.202-33.706,79.437
			c12.609,31.219,48.165,46.308,79.41,33.685c31.222-12.614,46.309-48.171,33.697-79.387
			C504.965,636.548,469.399,621.431,438.179,634.046z"/>
		<path id="XMLID_66_" fill="#FFFFFF" d="M621.489,737.242c-39.021,18.796-55.674,35.48-69.838,48.166
			c11.148,8.944,23.467,20.456,35.933,20.368c8.893-0.058,20.863-4.582,29.434-6.648c14.681-3.558,28.776-9.319,42.045-16.371
			c16.452-8.748,35.749-18.652,47.292-33.849c6.332-8.345,7.777-20.1,7.438-31.928C686.745,719.419,653.011,722.064,621.489,737.242
			z"/>
		<path id="XMLID_65_" fill="#FFFFFF" d="M442.83,643.546l-1.432,0.58c-24.591,9.938-36.454,37.958-26.521,62.536
			c9.936,24.605,37.926,36.494,62.519,26.552l1.431-0.58c24.597-9.935,36.473-37.928,26.532-62.529
			C495.426,645.52,467.427,633.614,442.83,643.546z"/>
		<path id="XMLID_64_" fill="#3A3A3A" d="M483.967,654.285c-7.617,3.076-11.298,11.748-8.218,19.37
			c3.074,7.61,11.749,11.302,19.367,8.22c7.62-3.078,11.311-11.76,8.237-19.376C500.274,654.886,491.589,651.204,483.967,654.285z"
			/>
		<path id="XMLID_63_" fill="#E0965A" d="M682.862,532.599c-31.219,12.613-46.297,48.189-33.684,79.406
			c12.616,31.232,48.171,46.318,79.386,33.704c31.259-12.631,46.327-48.166,33.711-79.401
			C749.66,535.089,714.123,519.966,682.862,532.599z"/>
		<path id="XMLID_62_" fill="#594D43" d="M355.862,623.183c-7.047,15.637-10.098,38.916-5.578,55.754l1.053,2.606
			c1.425-22.967,20.69-33.925,36.967-47.411c7.823-6.471,35.636-23.069,21.519-32.57
			C391.224,589.032,363.537,606.179,355.862,623.183z"/>
		<path id="XMLID_61_" fill="#FFFFFF" d="M688.457,544.308l-1.442,0.58c-24.61,9.946-36.468,37.963-26.53,62.544
			c9.932,24.6,37.914,36.486,62.524,26.547l1.445-0.584c24.596-9.938,36.452-37.923,26.515-62.525
			C741.033,546.285,713.056,534.369,688.457,544.308z"/>
		<path id="XMLID_60_" fill="#3A3A3A" d="M729.57,555.049c-7.596,3.072-11.293,11.753-8.221,19.372
			c3.08,7.614,11.771,11.291,19.366,8.22c7.645-3.088,11.323-11.763,8.248-19.379C745.885,555.644,737.212,551.964,729.57,555.049z"
			/>
		<path id="XMLID_59_" fill="#594D43" d="M427.811,339.141C100.96,473.911,321.567,740.769,357.669,790.633
			c36.106,49.87-30.704-69.719-29.009-118.727c1.666-49.01,36.464-148.995,36.464-148.995s113.985,69.409,257.196,38.396
			c143.208-31.005,233.861-65.871,233.861-65.871l-70.473-50.917C785.709,444.519,754.712,204.383,427.811,339.141z"/>
		<path id="XMLID_56_" fill="#E57676" d="M759.9,695.803c-44.369,19.508-86.723,13.367-132.493,27.261
			c-22.796,6.905-51.589,25.257-70.473,39.909c-7.737,6.002-12.331,11.801-20.083,17.804c-7.843,6.094-55.059,22.055-39.533,37.985
			c8.282,8.496,20.964,10.509,31.28,16.1c15.595,8.461,29.713,23.05,44.809,32.354c26.269,16.222,60.828,25.73,91.496,15.909
			c30.388-9.759,55.492-30.131,71.226-57.981c8.522-15.094,12.173-34.855,16.767-51.496c4.649-16.901,4.881-45.31,18.393-57.874
			C780.368,707.335,772.617,690.202,759.9,695.803z M731.598,763.705c-8.248,35.022-23.78,63.81-54.098,84.024
			c-31.52,21.012-64.5,12.739-94.469-5.782c-12.668-7.86-24.89-16.443-37.643-24.235c-4.416-2.709-8.958-5.147-13.527-7.562
			c10.032-5.194,19.096-12.082,28.2-19.637c19.961-16.511,46.182-32.88,70.824-41.184c25.031-8.416,48.198-10.972,74.089-15.031
			c13.007-2.04,21.66-1.057,34.348-5.45C736.08,740.156,734.301,752.21,731.598,763.705z"/>
		<path id="XMLID_55_" fill="#E0965A" d="M557.379,582.168l3.584,112.865c1.597,21.381,35.15,55.257,73.694,12.137
			c9.564-10.702-2.945-33.671-12.075-46.1C609.026,642.589,570.212,600.922,557.379,582.168z"/>
		<path id="XMLID_54_" fill="#E0965A" d="M366.932,850.48c-3.93,1.761-7.903,6.045-4.642,10.307c5.332,7.016,17.28-3.262,23.4-3.735
			l-0.133-1.393C379.605,852.409,373.629,847.477,366.932,850.48z"/>
		<polygon id="XMLID_53_" fill="#527070" points="1079.033,1907.135 1080.873,1960.128 1092.266,1893.301 1011.426,1793.041 
			977.985,1810.533 		"/>
		<g id="XMLID_48_">
			<polygon id="XMLID_52_" fill="#3F3731" points="740.731,2035.835 1166.349,1654.501 1149.236,1632.946 719.98,2013.167 			"/>
			<path id="XMLID_51_" fill="#B7A632" d="M920.807,1809.89c-15.128,13.681-16.94,36.289-4.065,50.53
				c12.872,14.231,35.543,14.688,50.671,1.006c15.107-13.66,16.939-36.281,4.075-50.508
				C958.611,1796.676,935.914,1796.23,920.807,1809.89z"/>
			<path id="XMLID_50_" fill="#3F3731" d="M931.226,1821.406c-7.71,6.974-8.194,19.013-1.074,26.886
				c7.109,7.865,19.146,8.597,26.855,1.624c7.701-6.963,8.191-19.02,1.08-26.885
				C950.968,1815.159,938.929,1814.441,931.226,1821.406z"/>
			<path id="XMLID_49_" fill="#B7A632" d="M971.615,1803.495c-9.31,8.483-16.336,19.49-27.961,25.115
				c-4.379,2.112-1.916,9.821,2.852,8.175c13.5-4.627,21.588-16.676,31.479-26.252
				C982.365,1806.296,976.145,1799.348,971.615,1803.495z"/>
		</g>
		<polygon id="XMLID_47_" fill="#527070" points="1113.371,2339.694 1141.884,2352.438 1160.979,2240.231 1065.657,2279.563 		"/>
		<polygon id="XMLID_46_" fill="#527070" points="1507.931,1724.808 1619.924,1676.633 1544.959,1664.017 1457.619,1657.516 		"/>
		<polygon id="XMLID_45_" fill="#5F8483" points="858.637,2572.421 891.932,2549.513 821.734,2463.505 797.975,2488.361 		"/>
		<polygon id="XMLID_44_" fill="#5F8483" points="1819.698,1825.036 1845.044,1724.922 1818.702,1713.26 1791.003,1822.678 		"/>
		<path id="XMLID_43_" fill="#384747" d="M476.571,1025.968c0,0,160.999,157.203,223.007,391.032
			C761.58,1650.823,802.9,1853.806,802.9,1853.806l-204.492,88.207l-83.721-565.342l-44.445,156.15l38.042,50.741l-150.266,97.065
			l-38.321-30.108l-38.32-93.064l2.737-350.357l118.263-138.2L476.571,1025.968z"/>
		<path id="XMLID_42_" fill="#527070" d="M466.957,1014.311l-90.45,52.038l44.076,123.559l56.969-0.409l-4.249,43.114
			l272.178,365.546l-14.119-75.555c0,0-44.48-221.385-110.473-319.644c-65.992-98.264-141.68-186.098-141.68-186.098
			L466.957,1014.311z"/>
		<path id="XMLID_41_" fill="#2D3534" d="M666.399,1204.301c-48.971,30.502-121.529,25.098-121.529,25.098l-56.723,87.14
			l104.146,39.578c0,0,106.455-42.69,149.561-119.975c22.029-39.497,39.941-150.397,39.941-150.397l-32.649,13.682
			C749.146,1099.427,732.674,1163.017,666.399,1204.301z"/>
		<path id="XMLID_40_" fill="#384747" d="M1091.49,1196.946l93.718,160.367l171.875-180.323c0,0-75.877-100.743-156.018-164.23
			c-80.134-63.49-303.459-123.418-303.459-123.418l-8.371,132.459c0,0-5.699,193.66,52.511,323.305
			c58.211,129.641,169.317,331.774,169.317,331.774l112.006-26.812c0,0-93.611-238.904-99.683-265.625
			C1117.314,1357.728,1091.49,1196.946,1091.49,1196.946z"/>
		<path id="XMLID_39_" fill="#527070" d="M891.975,878.53c0,0-31.235,260.674-0.931,349.032
			c58.948,171.89,95.033,208.932,95.033,208.932l15.068-356.566l-68.6-19.709l65.687-36.835l-10.895-143.043L891.975,878.53z"/>
		<path id="XMLID_38_" fill="#253A3A" d="M1010.063,1457.705c11.004,27.077,19.826,54.354,32.092,81.315
			c4.699,10.124,9.597,20.001,14.536,29.778c2.639-13.789,4.712-27.708,6.773-41.631c-2.061,13.922-4.134,27.841-6.773,41.631
			c1.078,2.129,2.155,4.253,3.234,6.377c5.764-4.797,11.699-9.394,18.177-13.412c-6.478,4.018-12.413,8.614-18.177,13.412
			c7.894,15.523,15.815,30.846,23.146,46.476c31.797-17.298,69.635-38.302,106.372-59.723
			c-7.336-18.135-13.245-36.913-20.926-54.911c-8.875-19.633-17.532-39.223-24.935-59.532c-7.288-19.98-14.315-40.068-22.916-59.54
			c-1.657-3.748-2.476-8.006-2.671-12.434C1085.496,1399.593,1045.389,1430.345,1010.063,1457.705z"/>
		<g id="XMLID_10_">
			<path id="XMLID_37_" fill="#F4B378" d="M822.155,590.669l25.549,43.38c18.714-11.534,56.032-48.543,30.038-71.41
				C856.33,543.797,831.275,573.644,822.155,590.669z"/>
			<path id="XMLID_36_" fill="#E0965A" d="M855.769,577.179c-6.868,4.314-9.628,16.473-9.882,24.035l3.105-0.582
				c5.667-4.548,18.039-10.021,18.43-18.868C867.71,575.514,860.05,574.482,855.769,577.179z"/>
			<g id="XMLID_24_">
				<path id="XMLID_35_" fill="#FFE05F" d="M1022.05,223.834c-10.111,27.876-19.793,56.376-28.978,85.449
					c-135.978,430.416-112.444,821.596,52.565,873.726c165.009,52.13,409.007-254.53,544.985-684.947
					c9.184-29.073,17.633-57.963,25.37-86.589L1022.05,223.834z"/>
				<path id="XMLID_34_" fill="#ED9E2B" d="M1325.612,319.736l-273.324,865.163c164.849,42.022,404.171-262.165,538.334-686.837
					c9.184-29.073,17.633-57.963,25.37-86.589L1325.612,319.736z"/>
				<path id="XMLID_31_" fill="#FFE05F" d="M1020.432,314.5c-95.633-30.213-200.68,32.399-234.624,139.842
					c-33.944,107.444,16.067,219.039,111.7,249.252c95.633,30.213,200.673-32.398,234.617-139.842
					C1166.069,456.308,1116.065,344.712,1020.432,314.5z M928.152,606.598c-47.953-15.149-73.029-71.106-56.009-124.98
					c17.022-53.879,69.694-85.271,117.646-70.122c47.954,15.15,73.03,71.104,56.008,124.983
					C1028.777,590.353,976.106,621.748,928.152,606.598z"/>
				<path id="XMLID_28_" fill="#ED9E2B" d="M1569.007,477.64c-95.64-30.215-200.68,32.399-234.624,139.843
					c-33.944,107.444,16.06,219.037,111.7,249.252c95.626,30.211,200.676-32.398,234.62-139.841
					C1714.647,619.449,1664.634,507.85,1569.007,477.64z M1476.727,769.738c-47.957-15.151-73.036-71.108-56.015-124.983
					c17.021-53.878,69.695-85.27,117.652-70.12c47.948,15.148,73.03,71.105,56.009,124.983
					C1577.352,753.493,1524.675,784.886,1476.727,769.738z"/>
				
					<rect id="XMLID_27_" x="858.225" y="1089.733" transform="matrix(-0.9535 -0.3012 0.3012 -0.9535 1594.8934 2808.9912)" fill="#844D40" width="311.606" height="383.583"/>
				
					<rect id="XMLID_26_" x="754.239" y="1416.882" transform="matrix(-0.9535 -0.3012 0.3012 -0.9535 1421.2313 3160.3838)" fill="#7F2826" width="400.1" height="107.459"/>
				
					<rect id="XMLID_25_" x="956.506" y="1179.92" transform="matrix(-0.9535 -0.3012 0.3012 -0.9535 1621.7924 2763.8135)" fill="#A36E64" width="134.974" height="153.886"/>
			</g>
			<polygon id="XMLID_23_" fill="#FFEFAE" points="1121.347,560.878 1083.031,692.248 1301.982,769.794 1352.158,634.774 			"/>
			<path id="XMLID_22_" fill="#ED9E2B" d="M1158.307,596.902c-2.291-2.292-5.437-3.595-8.679-3.595
				c-3.242,0-6.388,1.303-8.678,3.595c-2.292,2.291-3.595,5.436-3.595,8.678c0,3.242,1.303,6.387,3.595,8.678
				c2.291,2.291,5.436,3.595,8.678,3.595c3.242,0,6.387-1.303,8.679-3.595c2.291-2.291,3.594-5.436,3.594-8.678
				C1161.901,602.338,1160.598,599.193,1158.307,596.902z"/>
			<path id="XMLID_21_" fill="#ED9E2B" d="M1132.762,665.324c-2.291-2.291-5.437-3.595-8.678-3.595
				c-3.242,0-6.387,1.303-8.679,3.595c-2.291,2.291-3.595,5.436-3.595,8.678s1.304,6.387,3.595,8.678
				c2.291,2.291,5.437,3.595,8.679,3.595c3.242,0,6.387-1.303,8.678-3.595c2.291-2.291,3.595-5.436,3.595-8.678
				S1135.054,667.615,1132.762,665.324z"/>
			<path id="XMLID_20_" fill="#C6681A" d="M1316.438,647.078c-2.291-2.291-5.436-3.595-8.679-3.595s-6.387,1.303-8.678,3.595
				c-2.292,2.291-3.595,5.436-3.595,8.678c0,3.242,1.304,6.387,3.595,8.678c2.291,2.291,5.436,3.595,8.678,3.595
				s6.387-1.303,8.679-3.595c2.291-2.291,3.595-5.436,3.595-8.678C1320.033,652.515,1318.729,649.37,1316.438,647.078z"/>
			<path id="XMLID_19_" fill="#C6681A" d="M1289.373,723.103c-2.291-2.292-5.436-3.595-8.678-3.595s-6.387,1.303-8.678,3.595
				c-2.292,2.291-3.595,5.436-3.595,8.678c0,3.242,1.303,6.387,3.595,8.678c2.291,2.292,5.436,3.595,8.678,3.595
				s6.387-1.303,8.678-3.595c2.292-2.291,3.595-5.436,3.595-8.678C1292.968,728.539,1291.665,725.394,1289.373,723.103z"/>
			<polygon id="XMLID_18_" fill="#FFFCF0" points="1085.464,679.78 1121.347,554.492 1352.158,634.774 1134.728,583.685 			"/>
			<polygon id="XMLID_17_" fill="#FFFCF0" points="1011.707,239.184 993.072,309.283 1033.766,249.784 			"/>
			<polygon id="XMLID_16_" fill="#FFEFAE" points="1008.222,185.924 982.678,242.486 1623.11,454.139 1646.83,361.085 			"/>
			<polygon id="XMLID_15_" fill="#FFFCF0" points="992.55,215.922 1006.234,178.976 1646.83,361.085 1641.161,376.022 			"/>
			<polygon id="XMLID_14_" fill="#F2A620" points="951.98,101.275 886.288,21.897 927.346,0 			"/>
			<polygon id="XMLID_13_" fill="#F2A620" points="1062.2,112.676 1129.593,43.713 1154.17,78.485 			"/>
			<polygon id="XMLID_12_" fill="#F2A620" points="902.73,196.732 796.109,168.332 802.316,215.73 			"/>
			<polygon id="XMLID_11_" fill="#703C32" points="875.027,1204.959 924.291,1048.956 1220.369,1145.578 942.537,1085.448 			"/>
		</g>
		<g id="XMLID_6_">
			
				<radialGradient id="XMLID_140_" cx="3523.2095" cy="-220.9902" r="453.5714" gradientTransform="matrix(0.7256 -0.6881 0.6881 0.7256 -1297.9062 3954.8689)" gradientUnits="userSpaceOnUse">
				<stop  offset="0" style="stop-color:#FFBF77"/>
				<stop  offset="0.4226" style="stop-color:#FFBB7E"/>
				<stop  offset="1" style="stop-color:#E26156"/>
			</radialGradient>
			<path id="XMLID_9_" fill="url(#XMLID_140_)" d="M1194.99,1205.071c-15.842,16.256-61.627,42.436-78.612,54.091
				c-44.822,30.728-94.783,68.639-137.511,102.52c-25.314,20.094-57.287,77.122-88.925,66.487
				c-10.353-3.482-25.103-32.698-39.779-17.594c-13.619,13.983,14.218,39.237,21.75,45.721
				c-23.111,5.959-90.207,14.303-79.317,40.771c0.264,16.372,51.762-4.749,67.794-11.097c-8.731,8.517-76.299,47.603-60.554,66.033
				c12.788,14.965,67.421-29.366,76.658-33.012c-9.275,9.144-65.038,54.39-46.855,66.461c19.013,12.635,55.419-34.681,70.778-42.28
				c-5.29,15.855-44.476,72.227-8.203,68.936c21.168-1.948,27.454-41.106,32.02-57.192c5.026-17.692,0.561-12.268,19.763-17.669
				c68.749-19.204,136.232-52.27,198.248-89.448c45.654-27.365,195.893-131.426,207.222-158.936c0,0,29.407-63.017-36.251-108.559
				C1247.529,1134.761,1196.544,1205.132,1194.99,1205.071z"/>
			<path id="XMLID_8_" fill="#3E5B5B" d="M959.904,1369.801l84.78,135.963c0,0,289.344-160.177,325.72-212.071
				c32.256-46.027,15.478-77.797-13.322-116.703c-42.986-58.071-116.111-22.974-149.461-4.588
				C1174.279,1190.777,959.904,1369.801,959.904,1369.801z"/>
			<polygon id="XMLID_7_" fill="#527070" points="945.15,1370.544 1038.751,1515.803 1061.759,1502.812 969.62,1345.132 			"/>
		</g>
		<g id="XMLID_2_">
			
				<radialGradient id="XMLID_141_" cx="3751.0334" cy="-625.9838" r="453.581" gradientTransform="matrix(-0.9252 0.3794 0.3794 0.9252 4309.1357 623.7839)" gradientUnits="userSpaceOnUse">
				<stop  offset="0" style="stop-color:#FFBF77"/>
				<stop  offset="0.4226" style="stop-color:#FFBB7E"/>
				<stop  offset="1" style="stop-color:#E26156"/>
			</radialGradient>
			<path id="XMLID_5_" fill="url(#XMLID_141_)" d="M414.277,1480.745c21.324-7.778,63.983-38.792,81.581-49.5
				c46.411-28.269,101.482-58.279,149.91-83.345c28.71-14.842,93.835-20.603,97.117-53.819c1.072-10.87-19.52-36.308,0.275-43.495
				c18.34-6.684,29.95,29.064,32.773,38.594c14.916-18.632,50.052-76.397,69.723-55.607c14.823,6.958-25.568,45.257-37.934,57.273
				c11.35-4.469,74.715-50.052,85.063-28.132c8.4,17.802-54.441,49.437-61.555,56.365c12.144-4.707,76.285-36.998,79.833-15.464
				c3.723,22.523-54.365,36.312-67.596,47.201c16.629,1.68,84.115-10.928,66.232,20.802c-10.461,18.505-48.752,8.172-65.293,5.737
				c-18.196-2.675-11.418-4.521-24.222,10.775c-45.719,54.818-103.56,102.793-162.908,144.098
				c-43.687,30.408-200.224,124.729-229.961,123.773c0,0-69.535,0.964-84.13-77.598
				C328.601,1499.812,413.694,1482.188,414.277,1480.745z"/>
			<path id="XMLID_4_" fill="#3E5B5B" d="M660.953,1333.938l89.21,133.097c0,0-264.785,198.156-327.034,210.04
				c-55.208,10.533-67.242,19.15-99.038-45.721c-31.798-64.876,24.759-129.623,55.21-152.492
				C409.737,1455.993,660.953,1333.938,660.953,1333.938z"/>
			<polygon id="XMLID_3_" fill="#527070" points="667.683,1320.788 761.753,1465.744 740.466,1481.397 634.468,1332.678 			"/>
		</g>
	</g>
</g>
</svg>
